<?xml version="1.0" encoding="UTF-8"?>
<svg version="1.1" xmlns="http://www.w3.org/2000/svg" width="340" height="340">
<path d="M0 0 C112.2 0 224.4 0 340 0 C340 112.2 340 224.4 340 340 C227.8 340 115.6 340 0 340 C0 227.8 0 115.6 0 0 Z " fill="#0B0F14" transform="translate(0,0)"/>
<path d="M0 0 C1.04939758 0.00323273 1.04939758 0.00323273 2.11999512 0.00653076 C27.26604912 0.13033597 50.36177882 4.98817547 72.4375 17.3125 C73.23414063 17.75464844 74.03078125 18.19679688 74.8515625 18.65234375 C80.45937892 21.97011561 85.44962492 26.14180384 90.4375 30.3125 C91.26121094 30.99957031 92.08492187 31.68664062 92.93359375 32.39453125 C97.19807781 36.05680573 100.62917734 39.4284606 103.4375 44.3125 C99.3805062 48.48359675 95.21145715 52.4324163 90.8046875 56.23046875 C87.80027746 58.87296141 84.87008397 61.59082391 81.9375 64.3125 C75.60383941 70.18234566 69.24717902 75.99243827 62.4375 81.3125 C61.4475 80.466875 60.4575 79.62125 59.4375 78.75 C58.79296875 78.20085937 58.1484375 77.65171875 57.484375 77.0859375 C56.16566543 75.94339142 54.86208665 74.78302301 53.578125 73.6015625 C36.22455709 57.75388272 17.8818005 54.25043604 -4.89208984 55.14404297 C-14.01059937 55.71926436 -21.72063502 58.77588389 -29.5625 63.3125 C-30.31144531 63.74304688 -31.06039062 64.17359375 -31.83203125 64.6171875 C-47.67135977 74.43701639 -55.75453022 88.64632442 -60.125 106.28369141 C-63.7203916 122.9565174 -62.35940763 141.07308964 -54.5625 156.3125 C-54.2428125 156.99828125 -53.923125 157.6840625 -53.59375 158.390625 C-46.83046657 172.68078837 -35.11015339 182.31710345 -20.5625 188.3125 C-2.83179145 194.19008294 17.61508708 194.6073518 34.8125 186.5 C36.03699961 185.79832045 37.24420707 185.06602866 38.4375 184.3125 C39.31792969 183.78527344 40.19835937 183.25804687 41.10546875 182.71484375 C49.09908868 177.80648064 55.64138631 172.68937197 61.4375 165.3125 C66.90874452 169.11404592 71.57945443 173.33571484 76.23046875 178.09765625 C78.78006059 180.6562732 81.45751272 183.00640651 84.1953125 185.359375 C87.04553594 187.84214803 89.83745674 190.38477348 92.625 192.9375 C93.12427002 193.39302246 93.62354004 193.84854492 94.13793945 194.31787109 C97.32268178 197.23929335 100.40207272 200.23822813 103.4375 203.3125 C99.7287498 208.99152375 95.7351061 213.09905515 90.4375 217.3125 C89.94556152 217.71484863 89.45362305 218.11719727 88.94677734 218.53173828 C78.34819301 227.12734008 66.90508058 232.8779833 54.4375 238.3125 C53.45523438 238.76496094 52.47296875 239.21742188 51.4609375 239.68359375 C20.13272854 252.79654115 -21.61083098 249.40681033 -52.4765625 237.453125 C-59.49098876 234.57420592 -66.07648142 231.23048969 -72.5625 227.3125 C-73.55765625 226.73371094 -74.5528125 226.15492188 -75.578125 225.55859375 C-101.66337181 209.41224446 -118.43186829 183.25261967 -125.96508789 153.94702148 C-128.21634219 144.01923841 -128.9226048 134.28590464 -128.875 124.125 C-128.86936035 122.85487061 -128.8637207 121.58474121 -128.85791016 120.27612305 C-128.49469077 92.00434859 -119.60768825 66.24587799 -101.5625 44.3125 C-100.95535156 43.56484375 -100.34820312 42.8171875 -99.72265625 42.046875 C-95.73278659 37.30607749 -91.3709907 33.21216943 -86.5625 29.3125 C-85.68851563 28.6009375 -84.81453125 27.889375 -83.9140625 27.15625 C-59.84847566 8.31670212 -30.34165278 -0.16899652 0 0 Z " fill="#02ACFE" transform="translate(176.5625,44.6875)"/>
</svg>
